<svg xmlns="http://www.w3.org/2000/svg" viewBox="0 0 32 32">
  <linearGradient id="w">
    <stop offset="0%" stop-color="#25D366"/>
    <stop offset="100%" stop-color="#128C7E"/>
  </linearGradient>
  <path fill="url(#w)" d="M16 3C9.4 3 4 8.4 4 15c0 2.5.8 4.8 2.1 6.7L4 29l7.5-2c2 1 4.3 1.6 6.5 1.6 6.6 0 12-5.4 12-12S22.6 3 16 3zm0 22c-2 0-3.9-.5-5.6-1.6l-.4-.3-4.4 1.2 1.2-4.3-.3-.4A9.6 9.6 0 0 1 6 15c0-5.5 4.5-10 10-10s10 4.5 10 10-4.5 10-10 10zm5-7.5c-.3-.2-1.8-.9-2-1-.3-.1-.5-.2-.7.2-.2.3-.8 1-.9 1.2-.2.2-.3.3-.7.1-.3-.2-1.3-.5-2.4-1.5C13 15.9 12.7 15 12.6 14.7c-.1-.3 0-.5.1-.6.1-.1.3-.4.4-.5.1-.2.2-.3.3-.5.1-.2 0-.4 0-.6s-.7-1.7-1-2.4c-.3-.7-.6-.6-.8-.6h-.7c-.3 0-.6.1-.8.4-.3.3-1.1 1.1-1.1 2.7s1.1 3.1 1.2 3.3c.2.3 2.1 3.2 5.1 4.5 2.1.9 2.9 1 3.9.9.6-.1 1.8-.7 2-1.4.2-.7.2-1.3.2-1.4-.1-.2-.3-.3-.6-.5z"/>
</svg>
